<svg width="18" height="18" viewBox="0 0 18 18" fill="none" xmlns="http://www.w3.org/2000/svg">
<path d="M1.632 8.21252H17.1602C17.3661 8.21252 17.5636 8.29549 17.7092 8.44318C17.8548 8.59086 17.9366 8.79117 17.9366 9.00002C17.9366 9.20888 17.8548 9.40919 17.7092 9.55687C17.5636 9.70456 17.3661 9.78752 17.1602 9.78752H1.632C1.42608 9.78752 1.2286 9.70456 1.083 9.55687C0.937391 9.40919 0.855591 9.20888 0.855591 9.00002C0.855591 8.79117 0.937391 8.59086 1.083 8.44318C1.2286 8.29549 1.42608 8.21252 1.632 8.21252Z" fill="#E7E9EA"/>
<path d="M1.95352 9.00002L8.39305 15.53C8.53884 15.6778 8.62074 15.8784 8.62074 16.0875C8.62074 16.2966 8.53884 16.4972 8.39305 16.6451C8.24726 16.7929 8.04953 16.876 7.84335 16.876C7.63718 16.876 7.43944 16.7929 7.29366 16.6451L0.30598 9.55757C0.233676 9.48442 0.17631 9.39751 0.137169 9.30184C0.0980284 9.20617 0.0778809 9.1036 0.0778809 9.00002C0.0778809 8.89643 0.0980284 8.79387 0.137169 8.6982C0.17631 8.60252 0.233676 8.51562 0.30598 8.44247L7.29366 1.35497C7.43944 1.2071 7.63718 1.12402 7.84335 1.12402C8.04953 1.12402 8.24726 1.2071 8.39305 1.35497C8.53884 1.50284 8.62074 1.7034 8.62074 1.91252C8.62074 2.12164 8.53884 2.3222 8.39305 2.47007L1.95352 9.00002Z" fill="#E7E9EA"/>
</svg>
