<svg width="24" height="22" viewBox="0 0 24 22" fill="none" xmlns="http://www.w3.org/2000/svg">
<path d="M4 11C4 11.2431 4.10536 11.4763 4.29289 11.6482C4.48043 11.8201 4.73478 11.9166 5 11.9166C5.26522 11.9166 5.51957 11.8201 5.70711 11.6482C5.89464 11.4763 6 11.2431 6 11C6 10.7569 5.89464 10.5237 5.70711 10.3518C5.51957 10.1799 5.26522 10.0833 5 10.0833C4.73478 10.0833 4.48043 10.1799 4.29289 10.3518C4.10536 10.5237 4 10.7569 4 11ZM11 11C11 11.2431 11.1054 11.4763 11.2929 11.6482C11.4804 11.8201 11.7348 11.9166 12 11.9166C12.2652 11.9166 12.5196 11.8201 12.7071 11.6482C12.8946 11.4763 13 11.2431 13 11C13 10.7569 12.8946 10.5237 12.7071 10.3518C12.5196 10.1799 12.2652 10.0833 12 10.0833C11.7348 10.0833 11.4804 10.1799 11.2929 10.3518C11.1054 10.5237 11 10.7569 11 11ZM18 11C18 11.2431 18.1054 11.4763 18.2929 11.6482C18.4804 11.8201 18.7348 11.9166 19 11.9166C19.2652 11.9166 19.5196 11.8201 19.7071 11.6482C19.8946 11.4763 20 11.2431 20 11C20 10.7569 19.8946 10.5237 19.7071 10.3518C19.5196 10.1799 19.2652 10.0833 19 10.0833C18.7348 10.0833 18.4804 10.1799 18.2929 10.3518C18.1054 10.5237 18 10.7569 18 11Z" stroke="white" stroke-width="2" stroke-linecap="round" stroke-linejoin="round"/>
</svg>
