<svg width="19" height="19" viewBox="0 0 19 19" fill="none" xmlns="http://www.w3.org/2000/svg">
<g clip-path="url(#clip0_7_1858)">
<path d="M11.2273 17.2727H7.77274C4.51597 17.2727 2.88715 17.2727 1.87583 16.2605C0.863647 15.2492 0.863647 13.6204 0.863647 10.3636V8.63636C0.863647 5.37959 0.863647 3.75077 1.87583 2.73945C2.88715 1.72727 4.51597 1.72727 7.77274 1.72727H11.2273C14.4841 1.72727 16.1129 1.72727 17.1242 2.73945C18.1364 3.75077 18.1364 5.37959 18.1364 8.63636V10.3636C18.1364 13.6204 18.1364 15.2492 17.1242 16.2605C16.5602 16.8254 15.8046 17.075 14.6818 17.1846M5.18183 1.72727V0.431816M13.8182 1.72727V0.431816M17.7046 6.04545H8.42047M0.863647 6.04545H4.21024" stroke="#72777C" stroke-width="1.5" stroke-linecap="round"/>
<path d="M14.6819 12.9545C14.6819 13.1836 14.5909 13.4033 14.4289 13.5652C14.267 13.7272 14.0473 13.8182 13.8182 13.8182C13.5892 13.8182 13.3695 13.7272 13.2076 13.5652C13.0456 13.4033 12.9546 13.1836 12.9546 12.9545C12.9546 12.7255 13.0456 12.5058 13.2076 12.3439C13.3695 12.1819 13.5892 12.0909 13.8182 12.0909C14.0473 12.0909 14.267 12.1819 14.4289 12.3439C14.5909 12.5058 14.6819 12.7255 14.6819 12.9545ZM14.6819 9.5C14.6819 9.72905 14.5909 9.94872 14.4289 10.1107C14.267 10.2726 14.0473 10.3636 13.8182 10.3636C13.5892 10.3636 13.3695 10.2726 13.2076 10.1107C13.0456 9.94872 12.9546 9.72905 12.9546 9.5C12.9546 9.27095 13.0456 9.05128 13.2076 8.88931C13.3695 8.72735 13.5892 8.63636 13.8182 8.63636C14.0473 8.63636 14.267 8.72735 14.4289 8.88931C14.5909 9.05128 14.6819 9.27095 14.6819 9.5ZM10.3637 12.9545C10.3637 13.1836 10.2727 13.4033 10.1107 13.5652C9.94878 13.7272 9.72911 13.8182 9.50006 13.8182C9.27101 13.8182 9.05134 13.7272 8.88937 13.5652C8.72741 13.4033 8.63642 13.1836 8.63642 12.9545C8.63642 12.7255 8.72741 12.5058 8.88937 12.3439C9.05134 12.1819 9.27101 12.0909 9.50006 12.0909C9.72911 12.0909 9.94878 12.1819 10.1107 12.3439C10.2727 12.5058 10.3637 12.7255 10.3637 12.9545ZM10.3637 9.5C10.3637 9.72905 10.2727 9.94872 10.1107 10.1107C9.94878 10.2726 9.72911 10.3636 9.50006 10.3636C9.27101 10.3636 9.05134 10.2726 8.88937 10.1107C8.72741 9.94872 8.63642 9.72905 8.63642 9.5C8.63642 9.27095 8.72741 9.05128 8.88937 8.88931C9.05134 8.72735 9.27101 8.63636 9.50006 8.63636C9.72911 8.63636 9.94878 8.72735 10.1107 8.88931C10.2727 9.05128 10.3637 9.27095 10.3637 9.5ZM6.04551 12.9545C6.04551 13.1836 5.95452 13.4033 5.79256 13.5652C5.63059 13.7272 5.41092 13.8182 5.18187 13.8182C4.95282 13.8182 4.73315 13.7272 4.57119 13.5652C4.40923 13.4033 4.31824 13.1836 4.31824 12.9545C4.31824 12.7255 4.40923 12.5058 4.57119 12.3439C4.73315 12.1819 4.95282 12.0909 5.18187 12.0909C5.41092 12.0909 5.63059 12.1819 5.79256 12.3439C5.95452 12.5058 6.04551 12.7255 6.04551 12.9545ZM6.04551 9.5C6.04551 9.72905 5.95452 9.94872 5.79256 10.1107C5.63059 10.2726 5.41092 10.3636 5.18187 10.3636C4.95282 10.3636 4.73315 10.2726 4.57119 10.1107C4.40923 9.94872 4.31824 9.72905 4.31824 9.5C4.31824 9.27095 4.40923 9.05128 4.57119 8.88931C4.73315 8.72735 4.95282 8.63636 5.18187 8.63636C5.41092 8.63636 5.63059 8.72735 5.79256 8.88931C5.95452 9.05128 6.04551 9.27095 6.04551 9.5Z" fill="#72777C"/>
</g>
<defs>
<clipPath id="clip0_7_1858">
<rect width="19" height="19" fill="white"/>
</clipPath>
</defs>
</svg>
