<svg width="19" height="19" viewBox="0 0 19 19" fill="none" xmlns="http://www.w3.org/2000/svg">
<path d="M2.59091 7.89623C2.59091 4.01246 5.68446 0.86364 9.5 0.86364C13.3155 0.86364 16.4091 4.01246 16.4091 7.89623C16.4091 11.7498 14.2042 16.2476 10.7635 17.8548C10.368 18.04 9.93668 18.136 9.5 18.136C9.06332 18.136 8.63198 18.04 8.2365 17.8548C4.79578 16.2467 2.59091 11.7506 2.59091 7.89709V7.89623Z" stroke="#72777C" stroke-width="1.5"/>
<path d="M9.5 10.3636C10.9309 10.3636 12.0909 9.20365 12.0909 7.77273C12.0909 6.34181 10.9309 5.18182 9.5 5.18182C8.06908 5.18182 6.90909 6.34181 6.90909 7.77273C6.90909 9.20365 8.06908 10.3636 9.5 10.3636Z" stroke="#72777C" stroke-width="1.5"/>
</svg>
