<svg width="24" height="24" viewBox="0 0 24 24" fill="none" xmlns="http://www.w3.org/2000/svg">
<path d="M3 21C2.45 21 1.97933 20.8043 1.588 20.413C1.19667 20.0217 1.00067 19.5507 1 19V7C1 6.45 1.196 5.97933 1.588 5.588C1.98 5.19667 2.45067 5.00067 3 5H6.15L8 3H14V5H8.875L7.05 7H3V19H19V10H21V19C21 19.55 20.8043 20.021 20.413 20.413C20.0217 20.805 19.5507 21.0007 19 21H3ZM19 7V5H17V3H19V1H21V3H23V5H21V7H19ZM11 17.5C12.25 17.5 13.3127 17.0627 14.188 16.188C15.0633 15.3133 15.5007 14.2507 15.5 13C15.5 11.75 15.0627 10.6877 14.188 9.813C13.3133 8.93833 12.2507 8.50067 11 8.5C9.75 8.5 8.68767 8.93767 7.813 9.813C6.93833 10.6883 6.50067 11.7507 6.5 13C6.5 14.25 6.93767 15.3127 7.813 16.188C8.68833 17.0633 9.75067 17.5007 11 17.5ZM11 15.5C10.3 15.5 9.70833 15.2583 9.225 14.775C8.74167 14.2917 8.5 13.7 8.5 13C8.5 12.3 8.74167 11.7083 9.225 11.225C9.70833 10.7417 10.3 10.5 11 10.5C11.7 10.5 12.2917 10.7417 12.775 11.225C13.2583 11.7083 13.5 12.3 13.5 13C13.5 13.7 13.2583 14.2917 12.775 14.775C12.2917 15.2583 11.7 15.5 11 15.5Z" fill="#E7E9EA"/>
</svg>
