<svg width="20" height="16" viewBox="0 0 20 16" fill="none" xmlns="http://www.w3.org/2000/svg">
<g clip-path="url(#clip0_4_2)">
<path d="M7.74213 1.45507H7.67439C6.56794 1.45507 5.51052 1.67174 4.53955 2.06707L4.59762 2.0464C3.71172 2.37982 2.91567 2.92699 2.27568 3.6424L2.27181 3.6464C1.73065 4.23104 1.42245 5.00485 1.40858 5.81374V5.81707C1.41553 6.4673 1.6215 7.09857 1.99697 7.6204L1.99116 7.6124C2.41971 8.22128 2.96973 8.72802 3.60407 9.0984L3.62923 9.11174L4.69632 9.7504L4.31116 10.7051C4.5602 10.5535 4.78751 10.4057 4.9931 10.2617L5.47697 9.90974L6.05955 10.0231C6.56471 10.1231 7.146 10.1811 7.74084 10.1831H7.80987C8.91632 10.1831 9.97374 9.9664 10.9447 9.57107L10.8866 9.59174C11.7725 9.25832 12.5686 8.71115 13.2086 7.99574L13.2125 7.99174C13.746 7.4344 14.0757 6.66774 14.0757 5.82107C14.0757 4.9744 13.746 4.20774 13.2125 3.6504C12.5823 2.94308 11.7993 2.39964 10.9273 2.0644L10.8866 2.0504C9.90197 1.65263 8.85356 1.45021 7.79632 1.45374H7.73826H7.74149L7.74213 1.45507ZM7.74213 0.000403645L7.83955 -0.000263021C9.20665 -0.000263021 10.5092 0.285737 11.6937 0.803737L11.6286 0.778404C12.7218 1.22647 13.6886 1.95108 14.4402 2.88574L14.4492 2.89774C15.0918 3.6804 15.4828 4.70174 15.4828 5.81774C15.4828 6.93374 15.0918 7.95574 14.4441 8.7444L14.4492 8.73774C13.7079 9.66529 12.7547 10.3875 11.6757 10.8391L11.6286 10.8564C10.5086 11.3491 9.20536 11.6357 7.83826 11.6357L7.73697 11.6351H7.74213C7.06992 11.6335 6.39922 11.569 5.73826 11.4424L5.80665 11.4531C4.90153 12.1163 3.88715 12.6038 2.8131 12.8917L2.74858 12.9064C2.49762 12.9731 2.17697 13.0364 1.85116 13.0824L1.80342 13.0877H1.77052C1.68712 13.0867 1.60691 13.0545 1.54471 12.9971C1.47543 12.9373 1.43032 12.8528 1.41826 12.7604V12.7584C1.41086 12.7354 1.40716 12.7113 1.40729 12.6871V12.6831C1.40729 12.6577 1.40923 12.6324 1.4131 12.6077L1.41245 12.6104C1.41665 12.5863 1.42426 12.5629 1.43503 12.5411L1.43439 12.5424L1.46149 12.4851L1.5002 12.4224L1.54407 12.3651L1.59568 12.3077L1.63955 12.2544C1.67654 12.2091 1.76084 12.1144 1.89245 11.9704C2.02407 11.8264 2.11934 11.7146 2.17826 11.6351C2.23719 11.5555 2.31955 11.4457 2.42536 11.3057C2.52342 11.1784 2.61439 11.0351 2.6931 10.8837L2.7002 10.8684C2.77718 10.7168 2.85245 10.5502 2.926 10.3684C2.08043 9.87833 1.35219 9.19826 0.795035 8.3784L0.781486 8.35707C0.274062 7.61342 0.000591583 6.72632 -0.0017395 5.8164V5.81507C0.00135981 4.74369 0.368795 3.70753 1.03632 2.88774L1.03052 2.89507C1.77184 1.96752 2.72504 1.24534 3.80407 0.793737L3.85116 0.776404C4.97116 0.283737 6.27439 -0.00292969 7.64149 -0.00292969L7.74536 -0.00226302H7.7402L7.74213 0.000403645ZM16.7808 13.2837C16.854 13.4655 16.9292 13.6322 17.0066 13.7837C17.0925 13.9504 17.1834 14.0937 17.286 14.2271L17.2815 14.2211C17.3877 14.3611 17.4701 14.4708 17.5286 14.5504C17.5871 14.63 17.6823 14.7417 17.8144 14.8857C17.946 15.028 18.0303 15.1226 18.0673 15.1697C18.0746 15.1773 18.0892 15.1951 18.1112 15.2231C18.1331 15.2511 18.1503 15.2702 18.1628 15.2804C18.1782 15.2978 18.1924 15.3163 18.2054 15.3357L18.2066 15.3371C18.2203 15.3563 18.2328 15.3763 18.2441 15.3971L18.2454 15.3997L18.2725 15.4571L18.2944 15.5251L18.3002 15.5984L18.2892 15.6717C18.2718 15.7695 18.2215 15.8578 18.1473 15.9211L18.1466 15.9217C18.1132 15.9509 18.0745 15.973 18.0327 15.9866C17.991 16.0002 17.947 16.0051 17.9034 16.0011H17.9047C16.4493 15.8065 15.0644 15.2376 13.877 14.3464L13.9021 14.3644C13.3208 14.4784 12.6518 14.5444 11.9679 14.5464H11.9666C10.116 14.5943 8.29436 14.0638 6.7402 13.0244L6.77633 13.0471C7.2017 13.0773 7.52428 13.0924 7.74407 13.0924H7.78729C8.98407 13.0924 10.1383 12.9057 11.2241 12.5584L11.1415 12.5811C12.1928 12.2601 13.184 11.7577 14.0731 11.0951L14.0447 11.1151C14.8961 10.4848 15.6085 9.67524 16.135 8.73974L16.1537 8.70307C16.6394 7.82471 16.8935 6.83002 16.8905 5.8184C16.8905 5.20107 16.7983 4.6064 16.6266 4.0484L16.6376 4.08974C17.5186 4.5736 18.2813 5.25848 18.8679 6.0924L18.8808 6.11174C19.4189 6.86965 19.7079 7.78575 19.7054 8.72574C19.7068 9.64451 19.4308 10.5408 18.9157 11.2897L18.9247 11.2757C18.372 12.0925 17.6502 12.7718 16.8118 13.2644L16.7796 13.2817L16.7808 13.2837Z" fill="#E7E9EA"/>
</g>
<defs>
<clipPath id="clip0_4_2">
<rect width="20" height="16" fill="white"/>
</clipPath>
</defs>
</svg>
