<svg width="41" height="41" viewBox="0 0 41 41" fill="none" xmlns="http://www.w3.org/2000/svg">
<g clip-path="url(#clip0_3_39)">
<rect width="41" height="41" rx="20.5" fill="black"/>
<mask id="mask0_3_39" style="mask-type:luminance" maskUnits="userSpaceOnUse" x="0" y="0" width="41" height="41">
<path d="M0 0H41V41H0V0Z" fill="white"/>
</mask>
<g mask="url(#mask0_3_39)">
<path fill-rule="evenodd" clip-rule="evenodd" d="M0 0H41V41H0V0ZM9.39583 30.434C9.39583 30.7244 9.44452 31.0105 9.53763 31.2804C6.70519 28.4078 5.11965 24.5342 5.125 20.5C5.125 12.0087 12.0087 5.125 20.5 5.125C28.9913 5.125 35.875 12.0087 35.875 20.5C35.8805 24.5405 34.29 28.4196 31.4496 31.2933C31.5832 30.9283 31.6318 30.5377 31.5916 30.1512C31.5515 29.7647 31.4236 29.3924 31.2179 29.0628C31.0121 28.7331 30.7338 28.4548 30.4042 28.2489C30.0746 28.043 29.7024 27.9151 29.3159 27.8749C22.6892 27.189 18.3518 27.1232 11.6927 27.8595C11.06 27.9308 10.4758 28.2329 10.052 28.7081C9.6282 29.1833 9.39456 29.7973 9.39583 30.434ZM3.41667 20.5C3.41667 29.7011 10.6916 37.2041 19.803 37.5697C19.9958 37.5803 20.189 37.5846 20.3821 37.5825L20.5 37.5833C29.9351 37.5833 37.5833 29.9351 37.5833 20.5C37.5833 11.0649 29.9351 3.41667 20.5 3.41667C11.0649 3.41667 3.41667 11.0649 3.41667 20.5ZM20.5 23.9167C22.3123 23.9167 24.0504 23.1967 25.3319 21.9152C26.6134 20.6337 27.3333 18.8956 27.3333 17.0833C27.3333 15.271 26.6134 13.5329 25.3319 12.2514C24.0504 10.9699 22.3123 10.25 20.5 10.25C18.6877 10.25 16.9496 10.9699 15.6681 12.2514C14.3866 13.5329 13.6667 15.271 13.6667 17.0833C13.6667 18.8956 14.3866 20.6337 15.6681 21.9152C16.9496 23.1967 18.6877 23.9167 20.5 23.9167Z" fill="white"/>
</g>
</g>
<defs>
<clipPath id="clip0_3_39">
<rect width="41" height="41" rx="20.5" fill="white"/>
</clipPath>
</defs>
</svg>
