<svg width="24" height="24" viewBox="0 0 24 24" fill="none" xmlns="http://www.w3.org/2000/svg">
<g clip-path="url(#clip0_1_32)">
<path d="M12 1.09094C5.97488 1.09094 1.09088 5.97494 1.09088 12C1.09088 18.0251 5.97488 22.9091 12 22.9091C18.0251 22.9091 22.9091 18.0251 22.9091 12C22.9091 5.97494 18.0251 1.09094 12 1.09094Z" stroke="white" stroke-width="2" stroke-linecap="round" stroke-linejoin="round"/>
<path d="M3.56836 18.923C3.56836 18.923 6 15.8182 12 15.8182C18 15.8182 20.4327 18.923 20.4327 18.923M12 12C12.868 12 13.7004 11.6552 14.3142 11.0415C14.9279 10.4277 15.2727 9.5953 15.2727 8.72732C15.2727 7.85934 14.9279 7.02691 14.3142 6.41315C13.7004 5.79939 12.868 5.45459 12 5.45459C11.132 5.45459 10.2996 5.79939 9.68583 6.41315C9.07207 7.02691 8.72727 7.85934 8.72727 8.72732C8.72727 9.5953 9.07207 10.4277 9.68583 11.0415C10.2996 11.6552 11.132 12 12 12Z" stroke="white" stroke-width="2" stroke-linecap="round" stroke-linejoin="round"/>
</g>
<defs>
<clipPath id="clip0_1_32">
<rect width="24" height="24" fill="white"/>
</clipPath>
</defs>
</svg>
