<svg width="24" height="27" viewBox="0 0 24 27" fill="none" xmlns="http://www.w3.org/2000/svg">
<path d="M16.6667 16.0389H15.6133L15.24 15.6452C16.5918 13.9305 17.3348 11.7415 17.3333 9.47753C17.3333 7.60305 16.825 5.77067 15.8727 4.2121C14.9204 2.65353 13.5669 1.43877 11.9833 0.721438C10.3996 0.00410646 8.65706 -0.18358 6.97589 0.182112C5.29472 0.547804 3.75047 1.45045 2.53841 2.77591C1.32636 4.10136 0.500937 5.79009 0.166531 7.62855C-0.167874 9.46701 0.00375513 11.3726 0.659715 13.1044C1.31567 14.8362 2.4265 16.3164 3.85173 17.3578C5.27696 18.3992 6.95257 18.955 8.66667 18.955C10.8133 18.955 12.7867 18.0948 14.3067 16.6659L14.6667 17.0741V18.226L21.3333 25.5018L23.32 23.3293L16.6667 16.0389ZM8.66667 16.0389C5.34667 16.0389 2.66667 13.1081 2.66667 9.47753C2.66667 5.84691 5.34667 2.91617 8.66667 2.91617C11.9867 2.91617 14.6667 5.84691 14.6667 9.47753C14.6667 13.1081 11.9867 16.0389 8.66667 16.0389Z" fill="#E7E9EA"/>
</svg>
