<svg width="25" height="24" viewBox="0 0 25 24" fill="none" xmlns="http://www.w3.org/2000/svg">
<path d="M24.3863 4.57148C23.5113 4.97148 22.5681 5.23434 21.5909 5.36005C22.5909 4.75434 23.3636 3.79434 23.7272 2.64005C22.784 3.21148 21.7386 3.61148 20.6363 3.84005C19.7386 2.8572 18.4772 2.28577 17.0454 2.28577C14.375 2.28577 12.1931 4.48005 12.1931 7.18862C12.1931 7.5772 12.2386 7.95434 12.3181 8.30862C8.27268 8.10291 4.6704 6.14862 2.27268 3.18862C1.85222 3.90862 1.61359 4.75434 1.61359 5.64577C1.61359 7.34862 2.46586 8.8572 3.78404 9.71434C2.97722 9.71434 2.22722 9.48577 1.56813 9.14291V9.1772C1.56813 11.5543 3.24995 13.5429 5.47722 13.9886C4.76214 14.1854 4.01142 14.2128 3.28404 14.0686C3.59268 15.0429 4.19715 15.8954 5.01247 16.5063C5.82779 17.1171 6.81296 17.4557 7.8295 17.4743C6.10635 18.8463 3.9704 19.5878 1.77268 19.5772C1.38631 19.5772 0.99995 19.5543 0.613586 19.5086C2.77268 20.9029 5.34086 21.7143 8.09086 21.7143C17.0454 21.7143 21.9659 14.2401 21.9659 7.76005C21.9659 7.54291 21.9659 7.33719 21.9545 7.12005C22.909 6.43434 23.7272 5.56577 24.3863 4.57148Z" fill="white"/>
</svg>
